<svg version="1.2" xmlns="http://www.w3.org/2000/svg" viewBox="0 0 1005 857" width="1005" height="857"><style>.a{fill:#e7d5b7}</style><path class="a" d="m398.4 18.9c-57 34.4-54 111.5-95 158.2-49.8 56.9-131.6 46.4-192.9 82.1-67.2 39.1-67.3 104.8-44.2 171.5 10.6 30.7 33.9 63.3 24.6 97.6-8.1 29.8-36.8 37.4-54.1 59.2-92.3 116.2 0.8 282.9 147.9 268.6 76.8-7.4 134.2-63.4 214.5-41.2 69.1 19 106.7 36.5 177.9 11.5 67.7-23.8 114.1-5.6 184.7-8.4 72.1-3 163.3-42.2 162.7-124.8-0.4-76-17.2-115.5 22.3-189.3 39.8-74.5 80.3-122.7 44.1-209.5-26.3-63.2-79.1-134.3-148.5-152.3-78.7-20.5-108.7 24.9-163.7 62.8-134.8 92.8-103.3-292.9-280.3-186z"/></svg>