<svg version="1.2" xmlns="http://www.w3.org/2000/svg" viewBox="0 0 1287 1072" width="1287" height="1072"><style>.a{fill:#e7d5b7}</style><path class="a" d="m845.4-0.1c-79.2 0.4-123.2 81-193.5 103.7-85.6 27.7-162.8-32.9-247.2-33.8-92.5-1.1-132.8 66-149.8 148.2-7.8 37.8-4.1 85.4-34.5 114.7-26.3 25.5-60.3 15.8-91.3 27.5-165.2 62.5-171.9 289.5-12.9 364.7 83 39.3 175.8 17.1 244.2 88.7 59 61.7 86.7 102.4 174.7 120.3 83.7 17 119.9 64 193.8 104.1 75.5 41 192.5 56.5 242.4-28.1 45.9-78 52.9-128.5 138.3-179.9 86-51.8 156.9-76.3 172.9-187.1 11.7-80.7 1.1-185.5-58.8-246.2-67.9-68.9-126.2-40.9-205.5-35.8-194.3 12.7 73.3-362.2-172.8-361z"/></svg>