<svg version="1.2" xmlns="http://www.w3.org/2000/svg" viewBox="0 0 967 806" width="967" height="806"><style>.a{fill:#e7d5b7}</style><path class="a" d="m331.9 0c59.5 0.3 92.6 60.9 145.6 78.1 64.3 20.8 122.4-24.8 185.8-25.5 69.6-0.8 99.9 49.6 112.7 111.5 5.9 28.5 3.1 64.2 25.9 86.3 19.9 19.2 45.4 11.9 68.7 20.7 124.3 47 129.3 217.8 9.7 274.4-62.4 29.6-132.2 12.9-183.6 66.7-44.4 46.4-65.3 77.1-131.4 90.5-62.9 12.8-90.2 48.2-145.8 78.4-56.7 30.8-144.8 42.5-182.3-21.2-34.5-58.7-39.8-96.7-104-135.4-64.7-38.9-118-57.3-130-140.7-8.8-60.7-0.9-139.6 44.2-185.3 51-51.8 94.9-30.8 154.5-26.9 146.2 9.5-55.1-272.5 130-271.6z"/></svg>