<svg version="1.2" xmlns="http://www.w3.org/2000/svg" viewBox="0 0 1093 1129" width="1093" height="1129"><style>.a{fill:#e7d5b7}</style><path class="a" d="m1043.4 875.2c-62 49.2-146.7 13.7-215.9 40-84.1 31.9-106.5 127.4-171.8 180.8-71.6 58.7-144.9 31.5-209.6-22.1-29.8-24.6-56.5-64.1-98.6-68-36.5-3.4-57 25.4-88.5 35.6-168 54.5-315-118.6-237.9-276.7 40.2-82.5 126.5-123.1 135.2-221.8 7.5-85 3.7-134.1 61.2-203.1 54.7-65.5 53.7-124.9 86.3-202.4 33.3-79.1 115-164.4 206.8-129.5 84.5 32.2 121.6 67.3 220.3 54.1 99.6-13.4 170.2-38.5 252 38 59.5 55.7 116.7 144.1 108 228.9-10 96.3-73 110.8-138.1 156.4-159.7 111.5 283.5 237 90.6 389.8z"/></svg>