<svg version="1.2" xmlns="http://www.w3.org/2000/svg" viewBox="0 0 809 729" width="809" height="729"><style>.a{fill:#e7d4b6}</style><path class="a" d="m284.8 708.7c-44.7-32.2-37.1-95.7-67.9-137-37.3-50.2-105.5-47-153.8-80.5-52.9-36.8-48.6-91.1-25.1-144.7 10.8-24.6 32.2-50 26.8-79-4.7-25.1-27.9-33.3-40.7-52.5-68.5-102.1 19.4-233.6 140-212.2 62.9 11.2 106.6 61.3 174.3 48.3 58.4-11.2 90.5-23.1 147.7 2.3 54.2 24.1 93.8 12.1 151.9 19.1 59.3 7.2 132 45.7 126.1 113.8-5.5 62.8-21.9 94.3 5.7 158 27.9 64.1 58.2 106.6 22.6 176-26 50.5-74.3 105.7-132.8 116-66.3 11.7-88.1-27.7-131-62.7-105.1-85.6-104.8 235.2-243.8 135.1z"/></svg>